<svg width="90" height="28" viewBox="0 0 90 28" xmlns="http://www.w3.org/2000/svg">
    <g fill="none" fill-rule="evenodd">
        <path d="M12.575 4.479H6.327V0H.05v18.574h12.525c1.648 0 2.983-1.318 2.983-2.943V7.426c0-1.625-1.335-2.947-2.983-2.947M9.289 8.597H6.31v5.863h2.98V8.597z" fill="#EC6707"/>
        <path d="M87.015 4.483c1.65 0 2.985 1.322 2.985 2.948v8.2c0 1.625-1.336 2.948-2.984 2.948h-9.509c-1.645 0-2.98-1.323-2.98-2.948v-8.2c0-1.625 1.335-2.948 2.98-2.948zm-3.26 4.118h-2.981v5.86h2.98V8.6zM43.127 14.46h-2.983V8.597h2.983l.013 2.115 6.23-.01V7.427c0-1.625-1.335-2.943-2.98-2.943h-9.51c-1.647 0-2.982 1.318-2.982 2.943v8.205c0 1.625 1.335 2.943 2.983 2.943h9.509c1.646 0 2.98-1.318 2.98-2.943v-3.29h-6.23l-.013 2.12zM50.51 4.483h6.26v14.091h-6.26zM26.493 4.478h6.26v14.096h-6.26zM25.586 4.479H22.97V.013h-6.28v15.632c0 1.625 1.335 2.938 2.984 2.938h5.91v-4.002h-2.614V8.392h2.615V4.479zM64.141 18.574V8.597h2.981v9.977h6.246V7.426c0-1.625-1.335-2.943-2.981-2.943H57.895v14.091h6.245" fill="#000" fill-rule="nonzero"/>
        <g fill="#9D9D9C" fill-rule="nonzero">
            <path d="M0 27.917V23.12h1.574c.597 0 .985.025 1.167.072.278.072.51.229.699.47.187.24.281.552.281.933 0 .296-.054.543-.162.743-.109.2-.246.359-.413.473-.166.114-.336.19-.509.227-.234.047-.573.07-1.017.07H.98v1.809H0zm.98-3.986v1.361h.538c.386 0 .645-.025.775-.075a.644.644 0 0 0 .306-.235.64.64 0 0 0 .111-.373.614.614 0 0 0-.156-.432.68.68 0 0 0-.394-.213c-.117-.022-.353-.033-.706-.033H.981zM7.143 27.917V23.12h2.064c.519 0 .896.043 1.131.13.236.086.424.239.565.46.141.22.212.472.212.755 0 .36-.107.657-.321.892-.215.235-.535.382-.961.443.212.122.387.257.525.402.138.146.324.406.558.779l.593.936h-1.173l-.709-1.044c-.252-.373-.424-.608-.517-.705a.756.756 0 0 0-.295-.2c-.104-.035-.268-.054-.493-.054h-.199v2.003h-.98zm.98-2.769h.726c.47 0 .764-.019.881-.059a.528.528 0 0 0 .275-.202.622.622 0 0 0 .1-.36.57.57 0 0 0-.131-.39.6.6 0 0 0-.37-.188 8.294 8.294 0 0 0-.715-.017h-.766v1.216zM14.454 25.548c0-.489.074-.898.222-1.23.11-.244.26-.464.452-.658.191-.194.4-.338.628-.432a2.69 2.69 0 0 1 1.047-.19c.715 0 1.288.22 1.718.658.43.439.644 1.048.644 1.829 0 .774-.213 1.38-.64 1.817-.426.438-.996.657-1.709.657-.722 0-1.296-.218-1.723-.653-.426-.435-.64-1.035-.64-1.798zm1.01-.033c0 .544.127.955.381 1.236.254.28.577.42.968.42.39 0 .711-.139.962-.417.251-.278.376-.695.376-1.252 0-.55-.122-.96-.366-1.23s-.568-.405-.972-.405-.73.136-.978.41c-.247.273-.37.686-.37 1.238zM22.55 27.917V23.12h3.33v.812h-2.35v1.135h2.028v.812H23.53v2.038h-.98zM29.301 27.917V23.12h3.602v.812h-2.621v1.063h2.439v.808h-2.439v1.306h2.714v.808H29.3zM36.192 26.356l.954-.092c.058.317.174.548.35.696.176.15.413.224.71.224.317 0 .555-.067.715-.198.16-.132.24-.287.24-.463a.433.433 0 0 0-.101-.29c-.068-.08-.186-.149-.353-.208-.115-.04-.377-.11-.785-.21-.526-.128-.895-.286-1.107-.474a1.243 1.243 0 0 1-.238-1.65 1.32 1.32 0 0 1 .607-.486c.264-.111.583-.167.956-.167.61 0 1.069.132 1.377.396.308.264.47.616.485 1.056l-.98.043c-.042-.247-.132-.424-.27-.532-.138-.108-.346-.162-.622-.162-.285 0-.508.058-.669.174a.348.348 0 0 0-.156.298c0 .113.05.21.146.29.124.103.424.21.901.321.477.112.83.227 1.06.345.228.12.407.282.536.488.13.206.194.46.194.763a1.404 1.404 0 0 1-.888 1.307c-.282.116-.635.175-1.057.175-.614 0-1.086-.14-1.415-.42-.33-.279-.526-.687-.59-1.224zM43.33 26.356l.955-.092c.057.317.174.548.35.696.175.15.412.224.71.224.316 0 .553-.067.714-.198.16-.132.24-.287.24-.463a.435.435 0 0 0-.1-.29c-.068-.08-.186-.149-.353-.208-.116-.04-.377-.11-.786-.21-.526-.128-.894-.286-1.106-.474a1.24 1.24 0 0 1-.448-.965c0-.244.07-.473.21-.686a1.32 1.32 0 0 1 .607-.485c.264-.111.582-.167.955-.167.61 0 1.07.132 1.378.396.307.264.47.616.485 1.056l-.98.043c-.043-.247-.133-.424-.27-.532-.138-.108-.346-.162-.622-.162-.285 0-.508.058-.67.174a.348.348 0 0 0-.155.298c0 .113.048.21.146.29.123.103.423.21.9.321.477.112.83.227 1.06.345.227.12.406.282.536.488.13.206.194.46.194.763 0 .276-.077.533-.232.773-.155.24-.373.418-.656.534-.282.116-.636.175-1.056.175-.615 0-1.087-.14-1.416-.42-.329-.281-.526-.687-.59-1.224zM50.69 27.917V23.12h.982v4.797h-.98zM55.016 25.548c0-.489.074-.898.222-1.23.11-.244.26-.464.452-.658.191-.194.4-.338.628-.432.302-.126.651-.19 1.047-.19.716 0 1.288.22 1.718.658.43.439.645 1.048.645 1.829 0 .774-.214 1.38-.64 1.817-.426.438-.995.657-1.709.657-.723 0-1.297-.218-1.723-.653-.42-.435-.635-1.035-.635-1.798h-.005zm1.015-.033c0 .544.126.955.38 1.236.255.28.577.42.968.42s.712-.139.963-.417c.251-.278.376-.695.376-1.252 0-.55-.122-.96-.366-1.23s-.568-.405-.972-.405-.73.136-.977.41c-.255.273-.375.686-.375 1.238h.003zM63.116 27.917V23.12h.955l1.988 3.203V23.12h.91v4.797h-.983l-1.959-3.128v3.128h-.91zM70.591 27.917V23.12h.981v4.797h-.98zM74.871 26.356l.955-.092c.057.317.174.548.35.696.175.15.412.224.71.224.316 0 .553-.067.714-.198.16-.132.24-.287.24-.463a.435.435 0 0 0-.1-.29c-.069-.08-.186-.149-.354-.208-.114-.04-.376-.11-.785-.21-.526-.128-.894-.286-1.107-.474a1.24 1.24 0 0 1-.447-.965c0-.244.07-.473.21-.686.14-.212.343-.374.607-.485.264-.111.582-.167.956-.167.61 0 1.068.132 1.376.396.308.264.47.616.486 1.056l-.98.043c-.043-.247-.133-.424-.271-.532-.138-.108-.345-.162-.621-.162-.285 0-.508.058-.67.174a.348.348 0 0 0-.155.298c0 .113.048.21.145.29.124.103.425.21.902.321.477.112.83.227 1.058.345.229.12.407.282.537.488.13.206.194.46.194.763 0 .276-.077.533-.232.773-.155.24-.374.418-.656.534-.283.116-.636.175-1.057.175-.614 0-1.086-.14-1.415-.42-.335-.279-.53-.687-.595-1.224h.005zM83.351 27.917v-3.985h-1.44v-.812h3.859v.812h-1.438v3.985h-.98zM88.986 27.917V23.12h.981v4.797h-.98z"/>
        </g>
    </g>
</svg>
